<svg width="24" height="24" viewBox="0 0 24 24" fill="none" xmlns="http://www.w3.org/2000/svg">
<path fill-rule="evenodd" clip-rule="evenodd" d="M3.5 4C3.5 2.61929 4.61929 1.5 6 1.5H13C13.1326 1.5 13.2598 1.55268 13.3536 1.64645L20.3536 8.64645C20.4473 8.74021 20.5 8.86739 20.5 9V20C20.5 21.3807 19.3807 22.5 18 22.5H6C4.61929 22.5 3.5 21.3807 3.5 20V4ZM6 2.5C5.17157 2.5 4.5 3.17157 4.5 4V20C4.5 20.8284 5.17157 21.5 6 21.5H18C18.8284 21.5 19.5 20.8284 19.5 20V9.20711L12.7929 2.5H6Z" fill="red"/>
<path fill-rule="evenodd" clip-rule="evenodd" d="M13 1.5C13.2761 1.5 13.5 1.72386 13.5 2V8.5H20C20.2761 8.5 20.5 8.72386 20.5 9C20.5 9.27614 20.2761 9.5 20 9.5H13C12.7239 9.5 12.5 9.27614 12.5 9V2C12.5 1.72386 12.7239 1.5 13 1.5Z" fill="red"/>
</svg>
