<svg width="558" height="170" viewBox="0 0 558 170" fill="none" xmlns="http://www.w3.org/2000/svg">
<path d="M435.342 29C435.007 29 434.706 28.8864 434.439 28.6592C434.204 28.3995 434.087 28.1074 434.087 27.7828V18.97H425.255C424.92 18.97 424.619 18.8564 424.351 18.6292C424.117 18.3695 424 18.0774 424 17.7528V14.0037C424 13.6467 424.117 13.3546 424.351 13.1273C424.586 12.8677 424.887 12.7378 425.255 12.7378H434.087V4.21723C434.087 3.86017 434.204 3.56804 434.439 3.34082C434.706 3.11361 435.007 3 435.342 3H439.658C440.026 3 440.327 3.11361 440.561 3.34082C440.829 3.56804 440.963 3.86017 440.963 4.21723V12.7378H449.695C450.063 12.7378 450.364 12.8677 450.599 13.1273C450.866 13.3546 451 13.6467 451 14.0037V17.7528C451 18.1099 450.866 18.402 450.599 18.6292C450.364 18.8564 450.063 18.97 449.695 18.97H440.963V27.7828C440.963 28.1398 440.829 28.432 440.561 28.6592C440.327 28.8864 440.026 29 439.658 29H435.342Z" fill="#FF6633"/>
<path d="M510.803 127C510.307 127 509.861 126.83 509.465 126.489C509.118 126.099 508.944 125.661 508.944 125.174V111.955H495.859C495.363 111.955 494.917 111.785 494.52 111.444C494.173 111.054 494 110.616 494 110.129V104.506C494 103.97 494.173 103.532 494.52 103.191C494.867 102.801 495.314 102.607 495.859 102.607H508.944V89.8258C508.944 89.2903 509.118 88.8521 509.465 88.5112C509.861 88.1704 510.307 88 510.803 88H517.197C517.742 88 518.188 88.1704 518.535 88.5112C518.932 88.8521 519.13 89.2903 519.13 89.8258V102.607H532.067C532.612 102.607 533.058 102.801 533.405 103.191C533.802 103.532 534 103.97 534 104.506V110.129C534 110.665 533.802 111.103 533.405 111.444C533.058 111.785 532.612 111.955 532.067 111.955H519.13V125.174C519.13 125.71 518.932 126.148 518.535 126.489C518.188 126.83 517.742 127 517.197 127H510.803Z" fill="#FF6633"/>
<path d="M306.561 52C306.338 52 306.138 51.9257 305.959 51.7772C305.803 51.6074 305.725 51.4164 305.725 51.2041V45.4419H299.836C299.613 45.4419 299.413 45.3677 299.234 45.2191C299.078 45.0493 299 44.8583 299 44.6461V42.1948C299 41.9613 299.078 41.7703 299.234 41.6217C299.39 41.4519 299.591 41.367 299.836 41.367H305.725V35.7959C305.725 35.5624 305.803 35.3714 305.959 35.2228C306.138 35.0743 306.338 35 306.561 35H309.439C309.684 35 309.885 35.0743 310.041 35.2228C310.219 35.3714 310.309 35.5624 310.309 35.7959V41.367H316.13C316.375 41.367 316.576 41.4519 316.732 41.6217C316.911 41.7703 317 41.9613 317 42.1948V44.6461C317 44.8795 316.911 45.0705 316.732 45.2191C316.576 45.3677 316.375 45.4419 316.13 45.4419H310.309V51.2041C310.309 51.4376 310.219 51.6286 310.041 51.7772C309.885 51.9257 309.684 52 309.439 52H306.561Z" fill="#FF6633"/>
<path d="M162.041 14C161.892 14 161.758 13.9519 161.639 13.8558C161.535 13.7459 161.483 13.6223 161.483 13.485V9.75655H157.558C157.409 9.75655 157.275 9.70849 157.156 9.61236C157.052 9.5025 157 9.3789 157 9.24157V7.65543C157 7.50437 157.052 7.38077 157.156 7.28464C157.26 7.17478 157.394 7.11985 157.558 7.11985H161.483V3.51498C161.483 3.36392 161.535 3.24032 161.639 3.14419C161.758 3.04806 161.892 3 162.041 3H163.959C164.123 3 164.257 3.04806 164.361 3.14419C164.48 3.24032 164.539 3.36392 164.539 3.51498V7.11985H168.42C168.584 7.11985 168.717 7.17478 168.822 7.28464C168.941 7.38077 169 7.50437 169 7.65543V9.24157C169 9.39263 168.941 9.51623 168.822 9.61236C168.717 9.70849 168.584 9.75655 168.42 9.75655H164.539V13.485C164.539 13.6361 164.48 13.7597 164.361 13.8558C164.257 13.9519 164.123 14 163.959 14H162.041Z" fill="#FF6633"/>
<path d="M450.041 165C449.892 165 449.758 164.952 449.639 164.856C449.535 164.746 449.483 164.622 449.483 164.485V160.757H445.558C445.409 160.757 445.275 160.708 445.156 160.612C445.052 160.502 445 160.379 445 160.242V158.655C445 158.504 445.052 158.381 445.156 158.285C445.26 158.175 445.394 158.12 445.558 158.12H449.483V154.515C449.483 154.364 449.535 154.24 449.639 154.144C449.758 154.048 449.892 154 450.041 154H451.959C452.123 154 452.257 154.048 452.361 154.144C452.48 154.24 452.539 154.364 452.539 154.515V158.12H456.42C456.584 158.12 456.717 158.175 456.822 158.285C456.941 158.381 457 158.504 457 158.655V160.242C457 160.393 456.941 160.516 456.822 160.612C456.717 160.708 456.584 160.757 456.42 160.757H452.539V164.485C452.539 164.636 452.48 164.76 452.361 164.856C452.257 164.952 452.123 165 451.959 165H450.041Z" fill="#FF6633"/>
<path d="M522.041 11C521.892 11 521.758 10.9519 521.639 10.8558C521.535 10.7459 521.483 10.6223 521.483 10.485V6.75655H517.558C517.409 6.75655 517.275 6.70849 517.156 6.61236C517.052 6.5025 517 6.3789 517 6.24157V4.65543C517 4.50437 517.052 4.38077 517.156 4.28464C517.26 4.17478 517.394 4.11985 517.558 4.11985H521.483V0.514981C521.483 0.36392 521.535 0.240324 521.639 0.144195C521.758 0.0480647 521.892 0 522.041 0H523.959C524.123 0 524.257 0.0480647 524.361 0.144195C524.48 0.240324 524.539 0.36392 524.539 0.514981V4.11985H528.42C528.584 4.11985 528.717 4.17478 528.822 4.28464C528.941 4.38077 529 4.50437 529 4.65543V6.24157C529 6.39263 528.941 6.51623 528.822 6.61236C528.717 6.70849 528.584 6.75655 528.42 6.75655H524.539V10.485C524.539 10.6361 524.48 10.7597 524.361 10.8558C524.257 10.9519 524.123 11 523.959 11H522.041Z" fill="#FF6633"/>
<path d="M551.041 170C550.892 170 550.758 169.952 550.639 169.856C550.535 169.746 550.483 169.622 550.483 169.485V165.757H546.558C546.409 165.757 546.275 165.708 546.156 165.612C546.052 165.502 546 165.379 546 165.242V163.655C546 163.504 546.052 163.381 546.156 163.285C546.26 163.175 546.394 163.12 546.558 163.12H550.483V159.515C550.483 159.364 550.535 159.24 550.639 159.144C550.758 159.048 550.892 159 551.041 159H552.959C553.123 159 553.257 159.048 553.361 159.144C553.48 159.24 553.539 159.364 553.539 159.515V163.12H557.42C557.584 163.12 557.717 163.175 557.822 163.285C557.941 163.381 558 163.504 558 163.655V165.242C558 165.393 557.941 165.516 557.822 165.612C557.717 165.708 557.584 165.757 557.42 165.757H553.539V169.485C553.539 169.636 553.48 169.76 553.361 169.856C553.257 169.952 553.123 170 552.959 170H551.041Z" fill="#FF6633"/>
<path d="M298.041 164C297.892 164 297.758 163.952 297.639 163.856C297.535 163.746 297.483 163.622 297.483 163.485V159.757H293.558C293.409 159.757 293.275 159.708 293.156 159.612C293.052 159.502 293 159.379 293 159.242V157.655C293 157.504 293.052 157.381 293.156 157.285C293.26 157.175 293.394 157.12 293.558 157.12H297.483V153.515C297.483 153.364 297.535 153.24 297.639 153.144C297.758 153.048 297.892 153 298.041 153H299.959C300.123 153 300.257 153.048 300.361 153.144C300.48 153.24 300.539 153.364 300.539 153.515V157.12H304.42C304.584 157.12 304.717 157.175 304.822 157.285C304.941 157.381 305 157.504 305 157.655V159.242C305 159.393 304.941 159.516 304.822 159.612C304.717 159.708 304.584 159.757 304.42 159.757H300.539V163.485C300.539 163.636 300.48 163.76 300.361 163.856C300.257 163.952 300.123 164 299.959 164H298.041Z" fill="#FF6633"/>
<path d="M3.78067 170C3.66915 170 3.56877 169.965 3.47955 169.895C3.40149 169.815 3.36245 169.725 3.36245 169.625V166.914H0.418216C0.306691 166.914 0.20632 166.879 0.1171 166.809C0.0390335 166.729 0 166.639 0 166.539V165.386C0 165.276 0.0390335 165.186 0.1171 165.116C0.195167 165.036 0.295539 164.996 0.418216 164.996H3.36245V162.375C3.36245 162.265 3.40149 162.175 3.47955 162.105C3.56877 162.035 3.66915 162 3.78067 162H5.21933C5.34201 162 5.44238 162.035 5.52045 162.105C5.60967 162.175 5.65428 162.265 5.65428 162.375V164.996H8.56506C8.68773 164.996 8.7881 165.036 8.86617 165.116C8.95539 165.186 9 165.276 9 165.386V166.539C9 166.649 8.95539 166.739 8.86617 166.809C8.7881 166.879 8.68773 166.914 8.56506 166.914H5.65428V169.625C5.65428 169.735 5.60967 169.825 5.52045 169.895C5.44238 169.965 5.34201 170 5.21933 170H3.78067Z" fill="#FF6633"/>
<path d="M330.862 119C330.454 119 330.086 118.865 329.758 118.594C329.472 118.284 329.329 117.936 329.329 117.549V107.041H318.533C318.125 107.041 317.757 106.906 317.429 106.635C317.143 106.325 317 105.977 317 105.59V101.12C317 100.694 317.143 100.346 317.429 100.075C317.716 99.7653 318.084 99.6105 318.533 99.6105H329.329V89.4513C329.329 89.0256 329.472 88.6773 329.758 88.4064C330.086 88.1355 330.454 88 330.862 88H336.138C336.587 88 336.955 88.1355 337.242 88.4064C337.569 88.6773 337.732 89.0256 337.732 89.4513V99.6105H348.405C348.855 99.6105 349.223 99.7653 349.509 100.075C349.836 100.346 350 100.694 350 101.12V105.59C350 106.016 349.836 106.364 349.509 106.635C349.223 106.906 348.855 107.041 348.405 107.041H337.732V117.549C337.732 117.974 337.569 118.323 337.242 118.594C336.955 118.865 336.587 119 336.138 119H330.862Z" fill="#FF6633"/>
<path d="M349.854 55C349.276 55 348.777 54.8167 348.356 54.45C347.988 54.0833 347.804 53.6119 347.804 53.0357V46.1214H341.971C341.393 46.1214 340.92 45.9381 340.552 45.5714C340.184 45.1524 340 44.6548 340 44.0786V40.9357C340 40.3595 340.184 39.8881 340.552 39.5214C340.972 39.1548 341.445 38.9714 341.971 38.9714H347.804V35.0429H341.971C341.445 35.0429 340.972 34.8595 340.552 34.4929C340.184 34.0738 340 33.6024 340 33.0786V26.7929C340 26.2167 340.184 25.7452 340.552 25.3786C340.972 25.0119 341.445 24.8286 341.971 24.8286H347.804V2.04286C347.804 1.46667 347.988 0.995238 348.356 0.628573C348.777 0.209524 349.276 0 349.854 0H372.163C378.943 0 384.277 1.54524 388.166 4.63572C392.055 7.72619 394 12.2571 394 18.2286C394 23.8333 392.055 28.05 388.166 30.8786C384.33 33.6548 378.996 35.0429 372.163 35.0429H363.177V38.9714H373.267C373.845 38.9714 374.318 39.1548 374.686 39.5214C375.054 39.8881 375.238 40.3595 375.238 40.9357V44.0786C375.238 44.6548 375.054 45.1524 374.686 45.5714C374.318 45.9381 373.845 46.1214 373.267 46.1214H363.177V53.0357C363.177 53.6119 362.966 54.0833 362.546 54.45C362.178 54.8167 361.705 55 361.127 55H349.854ZM371.769 24.8286C373.924 24.8286 375.606 24.2786 376.815 23.1786C378.076 22.0262 378.707 20.35 378.707 18.15C378.707 16.1071 378.128 14.4571 376.972 13.2C375.816 11.9429 374.082 11.3143 371.769 11.3143H362.861V24.8286H371.769Z" fill="#70C05B"/>
<path d="M488.124 65C487.589 65 487.127 64.8267 486.737 64.48C486.397 64.1333 486.226 63.6876 486.226 63.1429V56.6057H480.825C480.29 56.6057 479.852 56.4324 479.511 56.0857C479.17 55.6895 479 55.219 479 54.6743V51.7029C479 51.1581 479.17 50.7124 479.511 50.3657C479.9 50.019 480.338 49.8457 480.825 49.8457H486.226V46.1314H480.825C480.338 46.1314 479.9 45.9581 479.511 45.6114C479.17 45.2152 479 44.7695 479 44.2743V38.3314C479 37.7867 479.17 37.341 479.511 36.9943C479.9 36.6476 480.338 36.4743 480.825 36.4743H486.226V14.9314C486.226 14.3867 486.397 13.941 486.737 13.5943C487.127 13.1981 487.589 13 488.124 13H508.781C515.058 13 519.998 14.461 523.599 17.3829C527.2 20.3048 529 24.5886 529 30.2343C529 35.5333 527.2 39.52 523.599 42.1943C520.046 44.819 515.107 46.1314 508.781 46.1314H500.46V49.8457H509.803C510.338 49.8457 510.776 50.019 511.117 50.3657C511.457 50.7124 511.628 51.1581 511.628 51.7029V54.6743C511.628 55.219 511.457 55.6895 511.117 56.0857C510.776 56.4324 510.338 56.6057 509.803 56.6057H500.46V63.1429C500.46 63.6876 500.265 64.1333 499.876 64.48C499.535 64.8267 499.097 65 498.562 65H488.124ZM508.416 36.4743C510.411 36.4743 511.968 35.9543 513.088 34.9143C514.255 33.8248 514.839 32.24 514.839 30.16C514.839 28.2286 514.304 26.6686 513.234 25.48C512.163 24.2914 510.557 23.6971 508.416 23.6971H500.168V36.4743H508.416Z" fill="#70C05B"/>
<path d="M481.657 165C481.325 165 481.038 164.89 480.797 164.67C480.586 164.45 480.48 164.167 480.48 163.821V159.673H477.131C476.8 159.673 476.528 159.563 476.317 159.343C476.106 159.091 476 158.793 476 158.447V156.561C476 156.216 476.106 155.933 476.317 155.713C476.558 155.493 476.83 155.383 477.131 155.383H480.48V153.026H477.131C476.83 153.026 476.558 152.916 476.317 152.696C476.106 152.444 476 152.161 476 151.847V148.076C476 147.73 476.106 147.447 476.317 147.227C476.558 147.007 476.83 146.897 477.131 146.897H480.48V133.226C480.48 132.88 480.586 132.597 480.797 132.377C481.038 132.126 481.325 132 481.657 132H494.464C498.356 132 501.418 132.927 503.651 134.781C505.884 136.636 507 139.354 507 142.937C507 146.3 505.884 148.83 503.651 150.527C501.449 152.193 498.386 153.026 494.464 153.026H489.305V155.383H495.098C495.43 155.383 495.701 155.493 495.912 155.713C496.124 155.933 496.229 156.216 496.229 156.561V158.447C496.229 158.793 496.124 159.091 495.912 159.343C495.701 159.563 495.43 159.673 495.098 159.673H489.305V163.821C489.305 164.167 489.184 164.45 488.943 164.67C488.732 164.89 488.46 165 488.128 165H481.657ZM494.238 146.897C495.475 146.897 496.44 146.567 497.134 145.907C497.858 145.216 498.22 144.21 498.22 142.89C498.22 141.664 497.889 140.674 497.225 139.92C496.561 139.166 495.565 138.789 494.238 138.789H489.124V146.897H494.238Z" fill="#70C05B"/>
<path d="M344.927 164C344.638 164 344.388 163.9 344.178 163.7C343.994 163.5 343.902 163.243 343.902 162.929V159.157H340.985C340.696 159.157 340.46 159.057 340.276 158.857C340.092 158.629 340 158.357 340 158.043V156.329C340 156.014 340.092 155.757 340.276 155.557C340.486 155.357 340.723 155.257 340.985 155.257H343.902V153.114H340.985C340.723 153.114 340.486 153.014 340.276 152.814C340.092 152.586 340 152.329 340 152.043V148.614C340 148.3 340.092 148.043 340.276 147.843C340.486 147.643 340.723 147.543 340.985 147.543H343.902V135.114C343.902 134.8 343.994 134.543 344.178 134.343C344.388 134.114 344.638 134 344.927 134H356.082C359.472 134 362.139 134.843 364.083 136.529C366.028 138.214 367 140.686 367 143.943C367 147 366.028 149.3 364.083 150.843C362.165 152.357 359.498 153.114 356.082 153.114H351.588V155.257H356.634C356.923 155.257 357.159 155.357 357.343 155.557C357.527 155.757 357.619 156.014 357.619 156.329V158.043C357.619 158.357 357.527 158.629 357.343 158.857C357.159 159.057 356.923 159.157 356.634 159.157H351.588V162.929C351.588 163.243 351.483 163.5 351.273 163.7C351.089 163.9 350.853 164 350.564 164H344.927ZM355.885 147.543C356.962 147.543 357.803 147.243 358.407 146.643C359.038 146.014 359.353 145.1 359.353 143.9C359.353 142.786 359.064 141.886 358.486 141.2C357.908 140.514 357.041 140.171 355.885 140.171H351.431V147.543H355.885Z" fill="#70C05B"/>
</svg>
