<svg width="24" height="24" viewBox="0 0 24 24" fill="none" xmlns="http://www.w3.org/2000/svg">
<path fill-rule="evenodd" clip-rule="evenodd" d="M4.5 2H19.5C20.8787 2 22 3.12125 22 4.5V19.5C22 20.8787 20.8787 22 19.5 22H15.75V15.125H17.625L18.875 12H15.75V9.5C15.75 8.86577 16.2231 8.86942 16.8355 8.87416C16.8893 8.87458 16.9442 8.875 17 8.875H18.25V5.75H15.75C13.6788 5.75 12 7.42875 12 9.5V12H9.5V15.125H12V22H4.5C3.12125 22 2 20.8787 2 19.5V4.5C2 3.12125 3.12125 2 4.5 2Z" fill="#1976D2"/>
</svg>
