<svg width="24" height="24" viewBox="0 0 24 24" fill="none" xmlns="http://www.w3.org/2000/svg">
<path fill-rule="evenodd" clip-rule="evenodd" d="M15.75 2H8.25C4.79875 2 2 4.79875 2 8.25V15.75C2 19.2013 4.79875 22 8.25 22H15.75C19.2013 22 22 19.2013 22 15.75V8.25C22 4.79875 19.2013 2 15.75 2ZM20.125 15.75C20.125 18.1625 18.1625 20.125 15.75 20.125H8.25C5.8375 20.125 3.875 18.1625 3.875 15.75V8.25C3.875 5.8375 5.8375 3.875 8.25 3.875H15.75C18.1625 3.875 20.125 5.8375 20.125 8.25V15.75ZM12.0002 7.2002C9.3494 7.2002 7.2002 9.3494 7.2002 12.0002C7.2002 14.651 9.3494 16.8002 12.0002 16.8002C14.651 16.8002 16.8002 14.651 16.8002 12.0002C16.8002 9.3494 14.651 7.2002 12.0002 7.2002ZM12.0002 15.0002C10.3466 15.0002 9.0002 13.6538 9.0002 12.0002C9.0002 10.3454 10.3466 9.0002 12.0002 9.0002C13.6538 9.0002 15.0002 10.3454 15.0002 12.0002C15.0002 13.6538 13.6538 15.0002 12.0002 15.0002ZM17.9998 6.6C17.9998 6.93137 17.7312 7.2 17.3998 7.2C17.0684 7.2 16.7998 6.93137 16.7998 6.6C16.7998 6.26863 17.0684 6 17.3998 6C17.7312 6 17.9998 6.26863 17.9998 6.6Z" fill="url(#paint0_linear_2855_1045)"/>
<defs>
<linearGradient id="paint0_linear_2855_1045" x1="4.92912" y1="19.0709" x2="19.0709" y2="4.92912" gradientUnits="userSpaceOnUse">
<stop stop-color="#FFC107"/>
<stop offset="0.507" stop-color="#F44336"/>
<stop offset="0.99" stop-color="#9C27B0"/>
</linearGradient>
</defs>
</svg>
