<svg width="23" height="25" viewBox="0 0 23 25" fill="none" xmlns="http://www.w3.org/2000/svg">
<path fill-rule="evenodd" clip-rule="evenodd" d="M10.8325 2.1567L2.83366 6.15615L2.83255 6.1567C2.32288 6.40996 2.00045 6.92983 2.00005 7.49894V17.0224C1.99608 17.5923 2.31541 18.1152 2.82416 18.372L10.8237 22.3717C11.2462 22.5832 11.7438 22.5832 12.1663 22.3718L20.1664 18.3717L20.1675 18.3712C20.6773 18.1179 20.9997 17.5979 21 17.0287V7.4992C20.9997 6.93 20.6773 6.41 20.1675 6.1567L20.1664 6.15615L12.1675 2.1567C11.7474 1.94814 11.2527 1.94813 10.8325 2.1567ZM10.3875 1.26117C11.0883 0.912942 11.9118 0.912942 12.6125 1.26117L12.6137 1.26172L20.6125 5.26117C21.4618 5.68342 21.9995 6.55017 22 7.49867V17.0289C21.9995 17.9774 21.4624 18.8441 20.6132 19.2664L12.6138 23.2661C11.9097 23.6184 11.0806 23.6184 10.3764 23.2662L2.37644 19.2662L2.37506 19.2655C1.52685 18.8381 0.994133 17.967 1.00005 17.0173V7.49894C1.00055 6.55048 1.53772 5.68375 2.38695 5.26147L10.3864 1.26173L10.3875 1.26117Z"/>
<path fill-rule="evenodd" clip-rule="evenodd" d="M1.79483 6.06777C1.91318 5.81532 2.20101 5.713 2.4377 5.83922L11.5001 10.6719L20.5625 5.83922C20.7992 5.713 21.087 5.81532 21.2054 6.06777C21.3237 6.32022 21.2278 6.62719 20.9911 6.75341L11.7144 11.7004C11.5795 11.7723 11.4207 11.7723 11.2858 11.7004L2.00912 6.75341C1.77242 6.62719 1.67648 6.32022 1.79483 6.06777Z" />
<path fill-rule="evenodd" clip-rule="evenodd" d="M11.5007 10.7319C11.7653 10.7319 11.9798 10.9607 11.9798 11.243V23C11.9798 23.2822 11.7653 23.511 11.5007 23.511C11.236 23.511 11.0215 23.2822 11.0215 23V11.243C11.0215 10.9607 11.236 10.7319 11.5007 10.7319Z" />
<path fill-rule="evenodd" clip-rule="evenodd" d="M7.28507 3.31435C7.40342 3.0619 7.69124 2.95958 7.92794 3.0858L16 8C16.2367 8.12622 16.3326 8.4332 16.2143 8.68564C16.0959 8.93809 15.8081 9.04042 15.5714 8.91419L7.49936 3.99999C7.26266 3.87377 7.16672 3.5668 7.28507 3.31435Z" />
</svg>
