<svg width="24" height="24" viewBox="0 0 24 24" fill="none" xmlns="http://www.w3.org/2000/svg">
<path d="M11.792 5.0251C12.9705 5.0251 13.9291 5.98373 13.9291 7.16224C13.9291 8.33977 12.9702 9.29839 11.792 9.29839C10.6142 9.29839 9.65532 8.33977 9.65532 7.16224C9.65507 5.98348 10.6144 5.0251 11.792 5.0251ZM11.792 12.322C14.6387 12.322 16.9537 10.0077 16.9537 7.16224C16.9537 4.31528 14.6389 2 11.792 2C8.94549 2 6.63021 4.31552 6.63021 7.16224C6.63021 10.0077 8.94549 12.322 11.792 12.322ZM13.8802 16.5323C14.942 16.2905 15.9554 15.8709 16.8774 15.2913C17.2168 15.0777 17.4575 14.7381 17.5465 14.3471C17.6355 13.9561 17.5655 13.5457 17.352 13.2063C17.2464 13.038 17.1086 12.8923 16.9466 12.7773C16.7846 12.6624 16.6016 12.5805 16.4079 12.5363C16.2142 12.4922 16.0138 12.4866 15.8179 12.52C15.6221 12.5534 15.4348 12.6251 15.2667 12.7309C13.1521 14.0604 10.4304 14.0594 8.31744 12.7309C8.14938 12.625 7.96209 12.5534 7.76629 12.52C7.57049 12.4865 7.37002 12.4921 7.17636 12.5362C6.98271 12.5804 6.79965 12.6623 6.63768 12.7773C6.47571 12.8922 6.338 13.038 6.23243 13.2063C6.01882 13.5456 5.94874 13.9559 6.03761 14.3469C6.12647 14.7379 6.36701 15.0776 6.70631 15.2913C7.62823 15.8707 8.64137 16.2902 9.703 16.5323L6.81749 19.4183C6.53392 19.702 6.37466 20.0867 6.37473 20.4878C6.3748 20.8888 6.5342 21.2735 6.81786 21.5571C7.10153 21.8406 7.48622 21.9999 7.88731 21.9998C8.2884 21.9997 8.67304 21.8403 8.95661 21.5567L11.7915 18.7213L14.6281 21.5569C14.7683 21.6974 14.9349 21.8088 15.1182 21.8848C15.3016 21.9609 15.4981 22 15.6966 22C15.8951 22 16.0917 21.9609 16.275 21.8848C16.4584 21.8088 16.6249 21.6974 16.7652 21.5569C16.9059 21.4167 17.0175 21.2501 17.0936 21.0666C17.1698 20.8832 17.209 20.6865 17.209 20.4879C17.209 20.2892 17.1698 20.0926 17.0936 19.9091C17.0175 19.7257 16.9059 19.559 16.7652 19.4188L13.8802 16.5323Z" fill="#EE8208"/>
</svg>
