<svg width="252" height="200" viewBox="0 0 252 200" fill="none" xmlns="http://www.w3.org/2000/svg">
<path d="M49.0389 19.9929L20.8038 -5.32392C20.2123 -5.85435 19.2771 -5.78332 18.7978 -5.13954C13.0795 2.48521 14.6313 13.9141 22.6084 21.0668C30.5855 28.2194 42.113 28.5227 49.0735 22.0071C49.6588 21.4583 49.6304 20.5233 49.0389 19.9929Z" fill="#FF6633"/>
<path d="M195.221 192.796L223.456 218.113C224.047 218.643 224.983 218.572 225.462 217.928C231.18 210.304 229.629 198.875 221.651 191.722C213.674 184.569 202.147 184.266 195.186 190.782C194.601 191.33 194.629 192.265 195.221 192.796Z" fill="#FF6633"/>
<path d="M227.079 69.1119L197.715 45.1138C197.1 44.611 196.169 44.7247 195.719 45.3898C190.356 53.2682 192.429 64.6141 200.725 71.3942C209.021 78.1743 220.551 77.9497 227.206 71.1224C227.765 70.5474 227.694 69.6147 227.079 69.1119Z" fill="#FF6633"/>
<path d="M36.5967 152.597L63.3053 125.675C63.8648 125.111 63.8411 124.173 63.2223 123.662C55.8956 117.567 44.403 118.54 36.8571 126.146C29.3113 133.753 28.427 145.25 34.5832 152.53C35.1018 153.143 36.0371 153.161 36.5967 152.597Z" fill="#FF6633"/>
<path d="M30.9153 91.3229C25.3475 91.9142 19.8723 83.3391 18.6861 72.1699C17.4999 61.0007 21.0519 51.4669 26.6197 50.8756C32.1875 50.2843 37.6628 58.8594 38.849 70.0286C40.0352 81.1978 36.4832 90.7316 30.9153 91.3229Z" fill="#FCA21C"/>
<path d="M216.571 110.581C222.139 109.99 227.614 118.565 228.8 129.734C229.986 140.903 226.434 150.437 220.867 151.029C215.299 151.62 209.824 143.045 208.637 131.876C207.451 120.706 211.003 111.173 216.571 110.581Z" fill="#FCA21C"/>
<path d="M155.855 4.90633C159.476 7.509 157.097 17.0123 150.541 26.1326C143.985 35.2529 135.735 40.5364 132.115 37.9337C128.494 35.3311 130.873 25.8278 137.429 16.7075C143.985 7.58721 152.235 2.30366 155.855 4.90633Z" fill="#FCA21C"/>
<path d="M101.977 159.895C97.5445 159.412 94.9367 149.969 96.1526 138.803C97.3685 127.637 101.948 118.977 106.381 119.459C110.814 119.942 113.422 129.385 112.206 140.551C110.99 151.717 106.41 160.378 101.977 159.895Z" fill="#FCA21C"/>
<path fill-rule="evenodd" clip-rule="evenodd" d="M104.33 64.6266C106.184 67.2202 105.584 70.8213 102.988 72.67C97.1432 76.833 89.2771 78.069 81.827 75.6484C74.3768 73.2277 68.7409 67.6034 66.4589 60.8016C65.4452 57.7804 67.0757 54.5139 70.1007 53.5056C73.1256 52.4972 76.3995 54.129 77.4131 57.1501C78.49 60.3598 81.2994 63.3519 85.3904 64.6812C89.4828 66.0108 93.5143 65.2415 96.2713 63.2779C98.8669 61.4292 102.475 62.0331 104.33 64.6266Z" fill="#70C05B"/>
<path fill-rule="evenodd" clip-rule="evenodd" d="M146.578 135.599C144.723 133.006 145.323 129.404 147.919 127.556C153.764 123.393 161.63 122.157 169.08 124.577C176.53 126.998 182.166 132.622 184.448 139.424C185.462 142.445 183.831 145.712 180.807 146.72C177.782 147.729 174.508 146.097 173.494 143.076C172.417 139.866 169.608 136.874 165.517 135.545C161.424 134.215 157.393 134.984 154.636 136.948C152.04 138.797 148.433 138.193 146.578 135.599Z" fill="#70C05B"/>
<path fill-rule="evenodd" clip-rule="evenodd" d="M204.272 -0.775622C203.762 -3.92318 205.9 -6.88277 209.047 -7.38604C216.133 -8.51935 223.729 -6.13255 229.329 -0.654418C234.928 4.8238 237.479 12.3663 236.502 19.4738C236.068 22.6308 233.156 24.8331 229.998 24.3928C226.84 23.9525 224.632 21.0363 225.066 17.8793C225.527 14.5254 224.339 10.5967 221.264 7.58847C218.189 4.57932 214.235 3.47773 210.893 4.01229C207.746 4.51556 204.782 2.37194 204.272 -0.775622Z" fill="#70C05B"/>
<path fill-rule="evenodd" clip-rule="evenodd" d="M114.699 200.053C116.953 202.308 116.951 205.959 114.693 208.207C109.608 213.271 102.051 215.779 94.305 214.611C86.5589 213.443 80.0781 208.817 76.7132 202.481C75.2185 199.666 76.2921 196.177 79.1111 194.687C81.9301 193.197 85.427 194.27 86.9216 197.085C88.5095 200.075 91.771 202.567 96.0245 203.208C100.279 203.85 104.13 202.431 106.529 200.042C108.787 197.793 112.445 197.798 114.699 200.053Z" fill="#70C05B"/>
<path d="M80.7235 3.95803C79.2204 1.71704 79.8186 -1.31813 82.0596 -2.82121L105.797 -18.7424C108.038 -20.2455 111.073 -19.6473 112.576 -17.4063L117.271 -10.4068C118.774 -8.16586 118.176 -5.13069 115.935 -3.62761L92.1975 12.2936C89.9565 13.7967 86.9213 13.1985 85.4182 10.9575L80.7235 3.95803Z" fill="#1CB9FC"/>
<path d="M134.358 177.491C133.782 174.854 135.453 172.251 138.089 171.675L166.013 165.579C168.65 165.003 171.253 166.674 171.829 169.31L173.627 177.544C174.202 180.18 172.532 182.784 169.895 183.36L141.971 189.456C139.335 190.032 136.731 188.361 136.155 185.725L134.358 177.491Z" fill="#1CB9FC"/>
<path d="M162.497 99.1414C160.483 100.938 157.394 100.761 155.598 98.7476L136.572 77.4178C134.776 75.4041 134.952 72.3156 136.966 70.5194L143.256 64.9092C145.269 63.113 148.358 63.2893 150.154 65.303L169.18 86.6328C170.976 88.6465 170.8 91.735 168.786 93.5312L162.497 99.1414Z" fill="#1CB9FC"/>
<path d="M29.6592 173.558C32.3187 173.101 34.8447 174.887 35.3012 177.547L40.1369 205.717C40.5935 208.376 38.8076 210.902 36.1481 211.359L27.8415 212.785C25.182 213.241 22.656 211.455 22.1995 208.796L17.3638 180.626C16.9072 177.966 18.6931 175.44 21.3526 174.984L29.6592 173.558Z" fill="#1CB9FC"/>
</svg>
