<svg width="24" height="25" viewBox="0 0 24 25" fill="none" xmlns="http://www.w3.org/2000/svg">
<path fill-rule="evenodd" clip-rule="evenodd" d="M3.5 19.5303C3.5 17.045 5.51472 15.0303 8 15.0303H16C18.4853 15.0303 20.5 17.045 20.5 19.5303V21.5303C20.5 21.8064 20.2761 22.0303 20 22.0303C19.7239 22.0303 19.5 21.8064 19.5 21.5303V19.5303C19.5 17.5973 17.933 16.0303 16 16.0303H8C6.067 16.0303 4.5 17.5973 4.5 19.5303V21.5303C4.5 21.8064 4.27614 22.0303 4 22.0303C3.72386 22.0303 3.5 21.8064 3.5 21.5303V19.5303Z" fill="#414141"/>
<path fill-rule="evenodd" clip-rule="evenodd" d="M7.5 7.53027C7.5 5.04499 9.51472 3.03027 12 3.03027C14.4853 3.03027 16.5 5.04499 16.5 7.53027C16.5 10.0156 14.4853 12.0303 12 12.0303C9.51472 12.0303 7.5 10.0156 7.5 7.53027ZM12 4.03027C10.067 4.03027 8.5 5.59728 8.5 7.53027C8.5 9.46327 10.067 11.0303 12 11.0303C13.933 11.0303 15.5 9.46327 15.5 7.53027C15.5 5.59728 13.933 4.03027 12 4.03027Z" fill="#414141"/>
</svg>
