<svg width="24" height="24" viewBox="0 0 24 24" fill="none" xmlns="http://www.w3.org/2000/svg">
<path d="M11.786 17.3635H12.9811C12.9811 17.3635 13.3424 17.3234 13.5261 17.1247C13.6961 16.9422 13.6899 16.5996 13.6899 16.5996C13.6899 16.5996 13.6661 14.9958 14.4112 14.7595C15.145 14.527 16.0876 16.3096 17.0864 16.9959C17.8414 17.5147 18.4152 17.401 18.4152 17.401L21.0867 17.3635C21.0867 17.3635 22.4843 17.2772 21.8217 16.1784C21.768 16.0884 21.4355 15.3658 19.8353 13.8807C18.1602 12.3256 18.3852 12.5781 20.4029 9.88915C21.6317 8.25152 22.123 7.25145 21.9692 6.82392C21.823 6.41639 20.9192 6.52389 20.9192 6.52389L17.9139 6.5414C17.9139 6.5414 17.6914 6.51139 17.5252 6.61015C17.3639 6.70766 17.2601 6.93268 17.2601 6.93268C17.2601 6.93268 16.7839 8.20027 16.1488 9.27785C14.81 11.5518 14.2737 11.6718 14.0549 11.5305C13.5461 11.2017 13.6736 10.2079 13.6736 9.50287C13.6736 7.29895 14.0074 6.38013 13.0223 6.14262C12.6948 6.06386 12.4548 6.01136 11.6185 6.00261C10.5459 5.99136 9.63709 6.00636 9.1233 6.25763C8.78078 6.42514 8.51701 6.79892 8.67827 6.82017C8.87703 6.84642 9.32707 6.94143 9.56583 7.26645C9.87461 7.68523 9.86336 8.6278 9.86336 8.6278C9.86336 8.6278 10.0409 11.2217 9.44958 11.5443C9.0433 11.7655 8.487 11.3143 7.29317 9.25035C6.68187 8.19402 6.21934 7.02518 6.21934 7.02518C6.21934 7.02518 6.13058 6.80767 5.97182 6.69141C5.77931 6.55015 5.50929 6.50514 5.50929 6.50514L2.65158 6.52264C2.65158 6.52264 2.2228 6.53515 2.06528 6.72141C1.92527 6.88767 2.05403 7.2302 2.05403 7.2302C2.05403 7.2302 4.2917 12.4643 6.82438 15.1033C9.1483 17.5222 11.786 17.3635 11.786 17.3635Z" fill="#1E88E5"/>
</svg>
